<svg width="94" height="50" viewBox="0 0 94 50" fill="none" xmlns="http://www.w3.org/2000/svg">
<mask id="path-1-inside-1_350_118" fill="white">
<path d="M0 0H94V50H0V0Z"/>
</mask>
<path d="M0 0H94V50H0V0Z" fill="white"/>
<path d="M38.6393 26.3168V34.0909C38.6393 34.332 38.7257 34.5632 38.8794 34.7337C39.0331 34.9042 39.2416 35 39.459 35H54.2131C54.4305 35 54.639 34.9042 54.7927 34.7337C54.9464 34.5632 55.0328 34.332 55.0328 34.0909V26.317M39.2576 15H54.4145C54.5926 15 54.7659 15.0644 54.9081 15.1833C55.0503 15.3023 55.1537 15.4694 55.2026 15.6593L56.6721 21.3636H37L38.4695 15.6593C38.5184 15.4694 38.6218 15.3023 38.764 15.1833C38.9062 15.0644 39.0795 15 39.2576 15Z" stroke="#4A4A4A" stroke-width="1.5" stroke-linecap="round" stroke-linejoin="round"/>
<path d="M43.8853 22.3333V24.1515C43.8853 25.1159 43.5398 26.0408 42.925 26.7228C42.3101 27.4047 41.4761 27.7879 40.6066 27.7879C39.737 27.7879 38.9031 27.4047 38.2882 26.7228C37.6733 26.0408 37.3279 25.1159 37.3279 24.1515V22.3333M50.4426 22.3333V24.1515C50.4426 25.1159 50.0972 26.0408 49.4823 26.7228C48.8675 27.4047 48.0335 27.7879 47.1639 27.7879C46.2944 27.7879 45.4604 27.4047 44.8456 26.7228C44.2307 26.0408 43.8853 25.1159 43.8853 24.1515V22.3333M57 22.3333V24.1515C57 25.1159 56.6546 26.0408 56.0397 26.7228C55.4248 27.4047 54.5909 27.7879 53.7213 27.7879C52.8518 27.7879 52.0178 27.4047 51.4029 26.7228C50.7881 26.0408 50.4426 25.1159 50.4426 24.1515V22.3333" stroke="#4A4A4A" stroke-width="1.5" stroke-linecap="round" stroke-linejoin="round"/>
<path d="M94 49H0V51H94V49Z" fill="black" mask="url(#path-1-inside-1_350_118)"/>
</svg>
