<svg width="94" height="50" viewBox="0 0 94 50" fill="none" xmlns="http://www.w3.org/2000/svg">
<mask id="path-1-inside-1_360_25" fill="white">
<path d="M0 0H94V50H0V0Z"/>
</mask>
<path d="M0 0H94V50H0V0Z" fill="white"/>
<path d="M53.518 35H40.4885C39.5633 35 38.676 34.6325 38.0218 33.9782C37.3675 33.324 37 32.4367 37 31.5115V18.482C37.0017 17.5579 37.37 16.6723 38.0241 16.0194C38.6781 15.3666 39.5644 15 40.4885 15H53.518C53.9753 15 54.4281 15.0901 54.8505 15.265C55.273 15.44 55.6568 15.6965 55.9802 16.0198C56.3035 16.3432 56.56 16.727 56.7349 17.1495C56.9099 17.5719 57 18.0247 57 18.482V31.5115C57 32.4356 56.6334 33.3219 55.9806 33.9759C55.3277 34.63 54.4421 34.9983 53.518 35ZM40.4885 16.6393C40.246 16.6385 40.0057 16.6855 39.7814 16.7777C39.5571 16.8699 39.3532 17.0055 39.1814 17.1767C39.0096 17.3479 38.8732 17.5513 38.7802 17.7753C38.6872 17.9993 38.6393 18.2394 38.6393 18.482V31.5115C38.6393 32.0019 38.8342 32.4723 39.181 32.819C39.5277 33.1658 39.9981 33.3607 40.4885 33.3607H53.518C53.7606 33.3607 54.0007 33.3128 54.2247 33.2198C54.4487 33.1268 54.6521 32.9904 54.8233 32.8186C54.9945 32.6468 55.1301 32.4429 55.2223 32.2186C55.3145 31.9943 55.3615 31.754 55.3607 31.5115V18.482C55.3607 17.9933 55.1665 17.5246 54.821 17.179C54.4754 16.8335 54.0067 16.6393 53.518 16.6393H40.4885Z" fill="#3B82F6"/>
<path d="M44.3902 25.8197C44.1638 25.8189 43.9402 25.7697 43.7344 25.6754C43.4466 25.5447 43.2029 25.3332 43.033 25.0666C42.863 24.8 42.7741 24.4899 42.7771 24.1738V15.8197C42.7771 15.6023 42.8634 15.3938 43.0171 15.2401C43.1708 15.0864 43.3793 15 43.5967 15C43.8141 15 44.0226 15.0864 44.1763 15.2401C44.33 15.3938 44.4164 15.6023 44.4164 15.8197V24.1738L45.9574 22.8098C46.247 22.5513 46.6216 22.4084 47.0098 22.4084C47.3981 22.4084 47.7727 22.5513 48.0623 22.8098L49.6426 24.1803L49.5902 15.8197C49.5902 15.6023 49.6765 15.3938 49.8302 15.2401C49.984 15.0864 50.1924 15 50.4098 15C50.6272 15 50.8357 15.0864 50.9894 15.2401C51.1432 15.3938 51.2295 15.6023 51.2295 15.8197V24.1738C51.2324 24.4899 51.1435 24.8 50.9736 25.0666C50.8036 25.3332 50.56 25.5447 50.2721 25.6754C49.9929 25.8038 49.6823 25.848 49.3783 25.8026C49.0743 25.7572 48.7902 25.6241 48.5607 25.4197L47 24.0689L45.4393 25.4262C45.1494 25.6811 44.7762 25.8211 44.3902 25.8197V25.8197ZM47.9836 30.9475H42.082C41.8646 30.9475 41.6561 30.8612 41.5024 30.7075C41.3487 30.5537 41.2623 30.3453 41.2623 30.1279C41.2623 29.9105 41.3487 29.702 41.5024 29.5483C41.6561 29.3946 41.8646 29.3082 42.082 29.3082H47.9836C48.201 29.3082 48.4095 29.3946 48.5632 29.5483C48.7169 29.702 48.8033 29.9105 48.8033 30.1279C48.8033 30.3453 48.7169 30.5537 48.5632 30.7075C48.4095 30.8612 48.201 30.9475 47.9836 30.9475Z" fill="#3B82F6"/>
<!-- <path d="M94 51C94.5523 51 95 50.5523 95 50C95 49.4477 94.5523 49 94 49V51ZM0 49C-0.552285 49 -1 49.4477 -1 50C-1 50.5523 -0.552285 51 0 51V49ZM94 49H0V51H94V49Z" fill="#3B82F6" mask="url(#path-1-inside-1_360_25)"/> -->
</svg>
