<svg width="93" height="50" viewBox="0 0 93 50" fill="none" xmlns="http://www.w3.org/2000/svg">
<mask id="path-1-inside-1_360_33" fill="white">
<path d="M0 0H94V50H0V0Z"/>
</mask>
<path d="M0 0H94V50H0V0Z" fill="white"/>
<path d="M53.9509 32.9916H51.0098V30.0678H52.1862V31.8221H53.9509V32.9916Z" fill="#4A4A4A"/>
<path d="M51.402 20.9068H38.4608V15.4492H51.402V20.9068ZM39.6373 19.7373H50.2255V16.6187H39.6373V19.7373ZM41.9902 25.5848H38.4608V22.0763H41.9902V25.5848ZM39.6373 24.4153H40.8138V23.2458H39.6373V24.4153ZM46.6961 25.5848H43.1667V22.0763H46.6961V25.5848ZM44.3432 24.4153H45.5196V23.2458H44.3432V24.4153ZM51.402 25.5848H47.8726V22.0763H51.402V25.5848ZM49.0491 24.4153H50.2255V23.2458H49.0491V24.4153ZM41.9902 29.4831H38.4608V25.9746H41.9902V29.4831ZM39.6373 28.3136H40.8138V27.1441H39.6373V28.3136ZM46.6961 29.4831H43.1667V25.9746H46.6961V29.4831ZM44.3432 28.3136H45.5196V27.1441H44.3432V28.3136Z" fill="#4A4A4A"/>
<path d="M49.049 27.8458H47.8726V25.9746H50.8137V27.1441H49.049V27.8458Z" fill="#4A4A4A"/>
<path d="M46.5627 31.822H36.5V13.5H53.3627V26.6217H52.1863V14.6695H37.6765V30.6525H46.5627V31.822Z" fill="#4A4A4A"/>
<path d="M51.9902 36.4999C51.0982 36.4999 50.2263 36.237 49.4846 35.7444C48.743 35.2518 48.165 34.5516 47.8236 33.7325C47.4823 32.9133 47.393 32.0119 47.567 31.1423C47.741 30.2727 48.1705 29.4739 48.8012 28.8469C49.4319 28.2199 50.2355 27.793 51.1103 27.62C51.9852 27.447 52.8919 27.5358 53.716 27.8751C54.54 28.2144 55.2444 28.789 55.7399 29.5262C56.2355 30.2635 56.5 31.1302 56.5 32.0169C56.4979 33.2052 56.0221 34.3443 55.1768 35.1846C54.3315 36.0249 53.1856 36.4979 51.9902 36.4999V36.4999ZM51.9902 28.7033C51.3309 28.7033 50.6864 28.8977 50.1383 29.2618C49.5901 29.6259 49.1628 30.1434 48.9106 30.7488C48.6583 31.3543 48.5923 32.0206 48.7209 32.6633C48.8495 33.3061 49.167 33.8965 49.6331 34.3599C50.0993 34.8233 50.6932 35.1389 51.3399 35.2668C51.9865 35.3946 52.6567 35.329 53.2658 35.0782C53.8749 34.8274 54.3954 34.4027 54.7617 33.8578C55.128 33.3129 55.3235 32.6722 55.3235 32.0169C55.3235 31.1381 54.9723 30.2953 54.3472 29.6738C53.7221 29.0524 52.8742 28.7033 51.9902 28.7033V28.7033Z" fill="#4A4A4A"/>
<path d="M94 49H0V51H94V49Z" fill="black" mask="url(#path-1-inside-1_360_33)"/>
</svg>
