<svg width="94" height="50" viewBox="0 0 94 50" fill="none" xmlns="http://www.w3.org/2000/svg">
<mask id="path-1-inside-1_360_21" fill="white">
<path d="M0 0H94V50H0V0Z"/>
</mask>
<path d="M0 0H94V50H0V0Z" fill="#FCFCFC"/>
<path d="M53.2344 30.25H52.7422V23.2773C52.7422 20.3837 50.6032 17.9925 47.8203 17.5946V16.7969C47.8203 16.3437 47.4532 15.9766 47 15.9766C46.5468 15.9766 46.1797 16.3437 46.1797 16.7969V17.5946C43.3968 17.9925 41.2578 20.3837 41.2578 23.2773V30.25H40.7656C40.4026 30.25 40.1094 30.5433 40.1094 30.9062V31.5625C40.1094 31.6527 40.1832 31.7266 40.2734 31.7266H44.7031C44.7031 32.9939 45.7326 34.0234 47 34.0234C48.2674 34.0234 49.2969 32.9939 49.2969 31.7266H53.7266C53.8168 31.7266 53.8906 31.6527 53.8906 31.5625V30.9062C53.8906 30.5433 53.5974 30.25 53.2344 30.25ZM47 32.7109C46.4565 32.7109 46.0156 32.27 46.0156 31.7266H47.9844C47.9844 32.27 47.5435 32.7109 47 32.7109ZM42.7344 30.25V23.2773C42.7344 22.1371 43.1773 21.0666 43.9833 20.2606C44.7893 19.4547 45.8598 19.0117 47 19.0117C48.1402 19.0117 49.2107 19.4547 50.0167 20.2606C50.8227 21.0666 51.2656 22.1371 51.2656 23.2773V30.25H42.7344Z" fill="#292929"/>
<path d="M94 49H0V51H94V49Z" fill="black" mask="url(#path-1-inside-1_360_21)"/>
</svg>
