<svg width="59" height="16" viewBox="0 0 59 16" fill="none" xmlns="http://www.w3.org/2000/svg">
<path d="M14.8004 14.3361L10.9309 10.4666C11.8015 9.38006 12.2749 8.02872 12.2727 6.63636C12.2727 3.24739 9.52549 0.5 6.13635 0.5C2.74738 0.5 0 3.24739 0 6.63636C0 10.0253 2.74738 12.7727 6.13635 12.7727C7.58521 12.7727 8.9168 12.2706 9.96663 11.4307L13.8361 15.3002C13.8993 15.3636 13.9745 15.4139 14.0572 15.4482C14.1399 15.4825 14.2286 15.5001 14.3182 15.5C14.453 15.5 14.5848 15.46 14.6969 15.3851C14.8091 15.3102 14.8965 15.2037 14.9481 15.0792C14.9997 14.9546 15.0132 14.8175 14.9869 14.6852C14.9606 14.553 14.8957 14.4315 14.8004 14.3361ZM6.13635 11.4091C3.50045 11.4091 1.36363 9.27227 1.36363 6.63636C1.36363 4.00045 3.50045 1.86364 6.13635 1.86364C8.77243 1.86364 10.9091 4.00045 10.9091 6.63636C10.9091 9.27227 8.77243 11.4091 6.13635 11.4091Z" fill="black"/>
<path d="M34.3123 10.1429C33.9081 10.1458 33.5097 10.2404 33.1472 10.4195C32.7847 10.5985 32.4674 10.8575 32.2192 11.1768L27.2515 8.69108C27.3154 8.46616 27.3496 8.23382 27.3532 8.00001C27.3496 7.7662 27.3154 7.53387 27.2515 7.30894L32.2192 4.82322C32.4674 5.14256 32.7847 5.40148 33.1472 5.58055C33.5097 5.75962 33.9081 5.85419 34.3123 5.85715C34.8417 5.85715 35.3592 5.70006 35.7993 5.40573C36.2395 5.1114 36.5826 4.69307 36.7852 4.20362C36.9877 3.71418 37.0407 3.17561 36.9375 2.65601C36.8342 2.13642 36.5793 1.65914 36.2049 1.28454C35.8306 0.909932 35.3537 0.654823 34.8345 0.551469C34.3153 0.448116 33.7771 0.501161 33.288 0.703896C32.7989 0.906631 32.3809 1.24995 32.0868 1.69044C31.7927 2.13093 31.6357 2.6488 31.6357 3.17858C31.6393 3.41239 31.6735 3.64472 31.7374 3.86965L26.7697 6.35537C26.5215 6.03603 26.2042 5.77711 25.8417 5.59804C25.4792 5.41897 25.0808 5.3244 24.6766 5.32144C23.9667 5.32144 23.2859 5.60364 22.784 6.10597C22.282 6.6083 22 7.28961 22 8.00001C22 8.71041 22.282 9.39172 22.784 9.89405C23.2859 10.3964 23.9667 10.6786 24.6766 10.6786C25.0808 10.6756 25.4792 10.5811 25.8417 10.402C26.2042 10.2229 26.5215 9.96399 26.7697 9.64466L31.7374 12.1304C31.5931 12.6715 31.6218 13.2442 31.8196 13.7681C32.0174 14.292 32.3743 14.7407 32.8401 15.0511C33.306 15.3614 33.8573 15.5179 34.4166 15.4984C34.9759 15.4789 35.515 15.2844 35.9581 14.9424C36.4013 14.6003 36.7261 14.1279 36.887 13.5915C37.0479 13.0551 37.0367 12.4817 36.8551 11.952C36.6734 11.4223 36.3304 10.9629 35.8743 10.6383C35.4182 10.3138 34.8719 10.1405 34.3123 10.1429V10.1429ZM34.3123 1.57143C34.6299 1.57143 34.9404 1.66569 35.2045 1.84228C35.4686 2.01888 35.6745 2.26988 35.796 2.56355C35.9176 2.85722 35.9494 3.18036 35.8874 3.49211C35.8254 3.80387 35.6725 4.09024 35.4479 4.315C35.2233 4.53976 34.9371 4.69283 34.6256 4.75484C34.3141 4.81685 33.9912 4.78503 33.6977 4.66339C33.4043 4.54174 33.1535 4.33575 32.977 4.07146C32.8005 3.80716 32.7064 3.49644 32.7064 3.17858C32.7064 2.75234 32.8756 2.34355 33.1767 2.04215C33.4779 1.74076 33.8864 1.57143 34.3123 1.57143V1.57143ZM24.6766 9.60716C24.359 9.60716 24.0485 9.5129 23.7844 9.3363C23.5203 9.15971 23.3144 8.90871 23.1929 8.61504C23.0713 8.32137 23.0395 7.99823 23.1015 7.68647C23.1635 7.37472 23.3164 7.08835 23.541 6.86359C23.7656 6.63882 24.0518 6.48576 24.3633 6.42375C24.6748 6.36174 24.9977 6.39356 25.2912 6.5152C25.5846 6.63684 25.8354 6.84284 26.0119 7.10713C26.1884 7.37142 26.2825 7.68215 26.2825 8.00001C26.2825 8.42625 26.1133 8.83504 25.8122 9.13644C25.511 9.43783 25.1025 9.60716 24.6766 9.60716ZM34.3123 14.4286C33.9947 14.4286 33.6842 14.3343 33.4201 14.1577C33.156 13.9811 32.9502 13.7301 32.8286 13.4365C32.7071 13.1428 32.6752 12.8197 32.7372 12.5079C32.7992 12.1962 32.9521 11.9098 33.1767 11.685C33.4013 11.4603 33.6875 11.3072 33.999 11.2452C34.3105 11.1832 34.6334 11.215 34.9269 11.3366C35.2203 11.4583 35.4711 11.6643 35.6476 11.9286C35.8241 12.1929 35.9183 12.5036 35.9183 12.8214C35.9183 13.2477 35.7491 13.6565 35.4479 13.9579C35.1467 14.2593 34.7382 14.4286 34.3123 14.4286V14.4286Z" fill="black"/>
<path d="M46.3807 13.4885C46.6701 13.7749 47.0607 13.9356 47.4678 13.9356C47.875 13.9356 48.2656 13.7749 48.555 13.4885L48.861 13.182C49.134 13.3205 49.4145 13.4385 49.7056 13.533V13.9645C49.7074 14.3712 49.8698 14.7607 50.1574 15.0482C50.445 15.3358 50.8345 15.4982 51.2412 15.5H51.7578C52.6009 15.5 53.2969 14.8075 53.2969 13.9645V13.529C53.5863 13.4357 53.8679 13.3197 54.139 13.182L54.445 13.4885C54.7344 13.7749 55.125 13.9356 55.5322 13.9356C55.9393 13.9356 56.3299 13.7749 56.6193 13.4885L56.9883 13.1215C57.2747 12.8318 57.4354 12.4409 57.4354 12.0335C57.4354 11.6261 57.2747 11.2352 56.9883 10.9455L56.6823 10.643C56.8208 10.37 56.9388 10.089 57.0328 9.798H57.4643C58.3079 9.798 59 9.1015 59 8.2585V7.742C59 6.899 58.3069 6.203 57.4643 6.203H57.0288C56.9355 5.91385 56.8197 5.63248 56.6823 5.3615L56.9883 5.055C57.2747 4.76571 57.4354 4.37508 57.4354 3.968C57.4354 3.56092 57.2747 3.17029 56.9883 2.881L56.6193 2.512C56.3299 2.22559 55.9393 2.06493 55.5322 2.06493C55.125 2.06493 54.7344 2.22559 54.445 2.512L54.139 2.818C53.8678 2.68066 53.5862 2.56464 53.2969 2.471V2.039C53.2944 1.6316 53.1315 1.2416 52.8434 0.953516C52.5553 0.665436 52.1652 0.502492 51.7578 0.5H51.2412C50.3981 0.5 49.7056 1.1965 49.7056 2.039V2.467C49.4145 2.5615 49.133 2.679 48.861 2.8175L48.555 2.5115C48.2656 2.22509 47.875 2.06443 47.4678 2.06443C47.0607 2.06443 46.6701 2.22509 46.3807 2.5115L46.0147 2.881C45.7287 3.17054 45.5684 3.56108 45.5684 3.968C45.5684 4.37492 45.7287 4.76546 46.0147 5.055L46.3172 5.3615C46.18 5.63258 46.0642 5.91393 45.9707 6.203H45.5387C45.1312 6.20536 44.7412 6.36828 44.4531 6.6564C44.165 6.94453 44.0022 7.33461 44 7.742V8.2585C44.0024 8.6659 44.1652 9.05596 44.4532 9.34413C44.7412 9.63231 45.1312 9.79538 45.5387 9.798H45.9707C46.0652 10.0885 46.1787 10.371 46.3172 10.643L46.0147 10.9455C45.7285 11.2353 45.568 11.6262 45.568 12.0335C45.568 12.4408 45.7285 12.8317 46.0147 13.1215L46.3807 13.4885V13.4885ZM51.2412 1.501H51.7578C52.0638 1.501 52.2968 1.7335 52.2968 2.04V2.8005C52.2973 2.91191 52.3349 3.01998 52.4037 3.10758C52.4726 3.19517 52.5687 3.25726 52.6769 3.284C53.1447 3.40047 53.5927 3.58583 54.006 3.834C54.1013 3.89107 54.2129 3.91478 54.3232 3.90138C54.4335 3.88798 54.5362 3.83823 54.6151 3.76L55.1541 3.221C55.2033 3.16968 55.2623 3.12884 55.3277 3.10094C55.393 3.07304 55.4633 3.05866 55.5344 3.05866C55.6055 3.05866 55.6758 3.07304 55.7412 3.10094C55.8065 3.12884 55.8655 3.16968 55.9147 3.221L56.2797 3.59C56.4963 3.8065 56.4963 4.13 56.2797 4.3465L55.7447 4.8855C55.6649 4.96423 55.614 5.06749 55.6 5.17867C55.5861 5.28985 55.6099 5.40249 55.6677 5.4985C55.9169 5.91161 56.1033 6.35952 56.2207 6.8275C56.2772 7.0485 56.4762 7.2035 56.7043 7.204H57.4648C57.7704 7.204 57.9999 7.4365 57.9999 7.743V8.2595C57.9999 8.5655 57.7704 8.7985 57.4648 8.7985H56.7043C56.5923 8.79823 56.4834 8.83552 56.3951 8.90441C56.3068 8.9733 56.2442 9.06981 56.2172 9.1785C56.1008 9.64624 55.9152 10.094 55.6667 10.507C55.5507 10.704 55.5817 10.955 55.7437 11.116L56.2787 11.655C56.3301 11.7041 56.3709 11.7632 56.3988 11.8285C56.4267 11.8939 56.4411 11.9642 56.4411 12.0352C56.4411 12.1063 56.4267 12.1766 56.3988 12.242C56.3709 12.3073 56.3301 12.3664 56.2787 12.4155L55.9137 12.781C55.8645 12.8323 55.8055 12.8732 55.7402 12.9011C55.6748 12.929 55.6045 12.9433 55.5334 12.9433C55.4623 12.9433 55.392 12.929 55.3267 12.9011C55.2613 12.8732 55.2023 12.8323 55.1531 12.781L54.6141 12.242C54.5351 12.1638 54.4324 12.1142 54.3221 12.1009C54.2118 12.0876 54.1003 12.1114 54.005 12.1685C53.5916 12.4165 53.1437 12.6019 52.6759 12.7185C52.567 12.7454 52.4704 12.8081 52.4015 12.8965C52.3326 12.9849 52.2954 13.0939 52.2958 13.206V13.9665C52.2972 14.0375 52.2842 14.108 52.2575 14.1738C52.2309 14.2396 52.1911 14.2993 52.1408 14.3493C52.0904 14.3993 52.0304 14.4386 51.9644 14.4647C51.8984 14.4909 51.8277 14.5034 51.7568 14.5015H51.2402C51.1693 14.5034 51.0986 14.4909 51.0326 14.4647C50.9666 14.4386 50.9066 14.3993 50.8562 14.3493C50.8059 14.2993 50.7661 14.2396 50.7395 14.1738C50.7128 14.108 50.6998 14.0375 50.7012 13.9665V13.206C50.7018 13.0944 50.6651 12.9857 50.5969 12.8974C50.5287 12.809 50.4328 12.7461 50.3246 12.7185C49.8569 12.602 49.4092 12.4167 48.996 12.1685C48.9003 12.1105 48.7879 12.0861 48.6768 12.0995C48.5657 12.1128 48.4622 12.163 48.3829 12.242L47.8479 12.781C47.7987 12.8323 47.7397 12.8732 47.6743 12.9011C47.609 12.929 47.5387 12.9433 47.4676 12.9433C47.3965 12.9433 47.3262 12.929 47.2608 12.9011C47.1955 12.8732 47.1365 12.8323 47.0873 12.781L46.7183 12.4155C46.6669 12.3664 46.6261 12.3073 46.5982 12.242C46.5703 12.1766 46.5559 12.1063 46.5559 12.0352C46.5559 11.9642 46.5703 11.8939 46.5982 11.8285C46.6261 11.7632 46.6669 11.7041 46.7183 11.655L47.2573 11.116C47.3354 11.037 47.385 10.9343 47.3982 10.824C47.4114 10.7137 47.3875 10.6022 47.3303 10.507C47.0826 10.0936 46.8973 9.64597 46.7803 9.1785C46.7534 9.06968 46.6907 8.97306 46.6023 8.90415C46.5138 8.83523 46.4048 8.79803 46.2927 8.7985H45.5367C45.4655 8.79986 45.3948 8.78684 45.3288 8.76023C45.2629 8.73362 45.2029 8.69396 45.1526 8.64363C45.1023 8.5933 45.0627 8.53333 45.0362 8.46733C45.0096 8.40132 44.9967 8.33063 44.9981 8.2595V7.743C44.9981 7.437 45.3021 7.3015 45.5367 7.204C45.7712 7.107 46.2972 7.204 46.2972 7.204C46.5258 7.2035 46.7243 7.0485 46.7813 6.8275C46.8978 6.35972 47.0832 5.91184 47.3313 5.4985C47.3893 5.40282 47.4136 5.29051 47.4003 5.17944C47.3871 5.06836 47.3371 4.9649 47.2583 4.8855L46.7188 4.3465C46.6675 4.29774 46.6267 4.23907 46.5988 4.17404C46.5709 4.10902 46.5565 4.039 46.5565 3.96825C46.5565 3.8975 46.5709 3.82748 46.5988 3.76246C46.6267 3.69743 46.6675 3.63876 46.7188 3.59L47.0878 3.221C47.1366 3.16972 47.1953 3.12889 47.2604 3.10099C47.3255 3.07309 47.3955 3.0587 47.4663 3.0587C47.5371 3.0587 47.6072 3.07309 47.6723 3.10099C47.7374 3.12889 47.7961 3.16972 47.8449 3.221L48.3839 3.76C48.4631 3.83918 48.5665 3.88951 48.6777 3.90293C48.7888 3.91634 48.9013 3.89207 48.997 3.834C49.4103 3.586 49.858 3.40065 50.3256 3.284C50.4338 3.25653 50.5296 3.19365 50.5978 3.10539C50.6661 3.01713 50.7028 2.90856 50.7022 2.797V2.04C50.7022 1.7335 50.9352 1.501 51.2412 1.501V1.501ZM51.5002 5.166C49.9411 5.166 48.669 6.442 48.669 8.0005C48.669 9.559 49.9411 10.835 51.5002 10.835C53.0589 10.835 54.335 9.559 54.335 8.0005C54.335 6.442 53.0589 5.166 51.5002 5.166V5.166ZM51.5002 6.166C51.7414 6.16514 51.9804 6.21201 52.2034 6.30389C52.4264 6.39578 52.6289 6.53088 52.7995 6.7014C52.97 6.87192 53.1051 7.07449 53.197 7.29745C53.2889 7.52041 53.3358 7.75935 53.3349 8.0005C53.3358 8.24165 53.2889 8.48059 53.197 8.70355C53.1051 8.92651 52.97 9.12908 52.7995 9.2996C52.6289 9.47012 52.4264 9.60522 52.2034 9.69711C51.9804 9.78899 51.7414 9.83586 51.5002 9.835C51.2593 9.8358 51.0205 9.78886 50.7978 9.6969C50.5751 9.60494 50.3728 9.46978 50.2026 9.29922C50.0324 9.12866 49.8976 8.92608 49.8061 8.70317C49.7147 8.48026 49.6682 8.24144 49.6696 8.0005C49.6683 7.75958 49.7148 7.52079 49.8063 7.29791C49.8978 7.07503 50.0325 6.87248 50.2027 6.70193C50.3729 6.53138 50.5752 6.39622 50.7979 6.30424C51.0206 6.21225 51.2593 6.16527 51.5002 6.166V6.166Z" fill="black"/>
</svg>
